<?xml version="1.0" standalone="no"?>
<!DOCTYPE svg PUBLIC "-//W3C//DTD SVG 20010904//EN"
 "http://www.w3.org/TR/2001/REC-SVG-20010904/DTD/svg10.dtd">
<svg version="1.0" xmlns="http://www.w3.org/2000/svg"
 width="500.000000pt" height="500.000000pt" viewBox="0 0 500.000000 500.000000"
 preserveAspectRatio="xMidYMid meet">
<metadata>
Created by potrace 1.14, written by Peter Selinger 2001-2017
</metadata>
<g transform="translate(0.000000,500.000000) scale(0.100000,-0.100000)"
fill="#000000" stroke="none">
<path d="M3338 4995 c-3 -3 -43 -11 -70 -14 -5 -1 -8 -7 -8 -15 0 -12 19 -15
103 -13 138 2 227 -26 296 -92 141 -135 85 -374 -105 -447 -73 -28 -275 -26
-393 5 -20 6 -47 12 -61 15 -14 3 -40 9 -58 15 -18 5 -36 10 -40 10 -12 2 -46
12 -67 21 -15 6 -144 47 -175 55 -3 1 -12 4 -20 7 -40 15 -56 21 -65 24 -5 1
-88 30 -183 63 -95 32 -200 67 -235 76 -103 28 -210 55 -239 60 -67 12 -95 17
-123 20 -174 24 -307 24 -453 0 -127 -22 -336 -113 -406 -177 -11 -10 -24 -18
-28 -18 -12 0 -178 -170 -178 -182 0 -5 -8 -18 -18 -28 -37 -40 -111 -207
-127 -287 -60 -299 34 -579 239 -712 23 -14 43 -28 46 -31 3 -4 52 -27 110
-53 85 -38 106 -44 108 -31 2 8 -14 31 -36 50 -63 55 -94 129 -97 233 -2 79 0
91 30 151 21 41 51 82 82 108 68 61 65 59 135 84 75 26 239 32 353 12 39 -7
86 -15 105 -18 29 -5 140 -31 210 -50 138 -38 151 -42 455 -138 182 -58 232
-73 383 -118 85 -26 286 -77 332 -85 56 -10 83 -14 110 -20 14 -3 72 -8 130
-11 58 -3 107 -8 109 -10 3 -2 5 -145 5 -317 l1 -312 -46 -45 c-26 -25 -70
-65 -99 -90 -29 -25 -62 -53 -74 -63 -76 -67 -143 -125 -162 -142 -12 -11 -47
-42 -78 -69 l-57 -49 43 -36 c24 -20 55 -47 69 -61 15 -14 57 -52 95 -85 37
-33 86 -77 108 -98 23 -21 60 -55 84 -75 24 -20 60 -53 80 -72 l37 -36 -2
-459 c0 -253 -2 -465 -2 -471 -1 -9 -101 -47 -158 -59 -13 -3 -32 -7 -43 -10
-34 -9 -53 -12 -100 -20 -25 -4 -52 -9 -61 -10 -118 -22 -414 -22 -569 0 -327
46 -637 210 -826 437 -35 42 -104 146 -104 157 0 6 -3 11 -8 11 -4 0 -14 15
-21 33 -8 17 -26 57 -40 87 -14 30 -26 57 -26 60 -1 3 -11 36 -23 74 -12 37
-24 78 -26 90 -3 11 -7 30 -9 41 -3 11 -8 40 -12 65 -4 25 -9 54 -11 65 -6 26
-16 232 -14 265 1 14 1 31 1 38 -2 25 -1 38 4 92 2 30 7 78 9 105 2 28 5 50 6
50 1 0 4 13 6 29 2 24 30 159 38 191 20 73 3 61 216 155 41 18 93 41 115 51
22 10 56 24 76 32 l36 15 0 -944 c0 -519 2 -946 5 -949 2 -3 23 4 46 15 22 11
48 20 57 20 8 0 15 5 15 10 0 6 5 10 12 10 6 0 32 9 57 21 25 11 55 25 66 29
28 12 122 54 175 78 25 11 104 45 175 77 72 31 149 66 172 76 24 11 54 24 67
28 l23 10 0 975 c0 537 -1 976 -2 976 -3 0 -118 -52 -280 -125 -27 -12 -84
-37 -125 -55 -41 -18 -108 -48 -148 -66 -41 -19 -75 -34 -76 -34 -2 0 -39 -17
-82 -37 -43 -20 -81 -37 -84 -38 -3 0 -32 -13 -65 -28 -33 -15 -64 -27 -69
-26 -5 0 -12 -3 -15 -8 -9 -14 -332 -152 -324 -140 4 7 8 17 9 22 4 23 85 187
125 251 58 93 108 154 204 249 95 95 113 110 191 161 93 61 97 64 130 79 17 7
36 21 44 29 18 23 -3 21 -113 -9 -183 -49 -309 -96 -477 -178 -118 -58 -340
-195 -340 -209 0 -5 -6 -8 -12 -8 -7 0 -27 -12 -43 -28 -17 -15 -52 -44 -78
-65 -50 -40 -164 -152 -207 -203 -144 -170 -218 -292 -313 -514 -16 -36 -41
-117 -42 -135 0 -5 -3 -14 -7 -20 -6 -10 -19 -65 -24 -100 -1 -11 -7 -40 -13
-65 -6 -27 -9 -138 -7 -280 3 -218 6 -264 23 -330 3 -14 6 -28 5 -31 -1 -4 3
-22 9 -40 6 -19 12 -45 15 -59 24 -119 163 -429 236 -525 4 -5 36 -48 70 -95
81 -110 248 -276 370 -368 53 -39 101 -72 106 -72 6 0 12 -4 14 -8 4 -11 143
-92 156 -92 5 0 15 -7 22 -15 6 -8 15 -13 18 -12 4 1 34 -11 67 -27 117 -56
296 -117 420 -142 99 -20 94 -20 255 -43 72 -11 498 -7 545 4 17 4 37 7 45 7
60 1 360 78 388 100 6 6 12 8 12 5 0 -6 30 6 123 46 15 7 27 15 27 18 0 3 6 6
13 6 24 0 183 101 296 188 7 5 55 51 105 101 105 102 186 207 263 339 56 96
144 300 158 368 4 18 10 37 13 42 4 6 7 15 9 20 1 6 4 19 7 30 29 125 40 181
50 260 4 28 9 61 12 75 2 14 7 85 10 158 5 97 3 132 -5 132 -11 0 -36 -47 -43
-81 -2 -8 -5 -16 -8 -19 -3 -3 -23 -41 -44 -85 -35 -71 -148 -252 -165 -265
-4 -3 -17 -18 -29 -35 -76 -100 -253 -253 -382 -332 -67 -41 -184 -99 -209
-105 -12 -3 -14 66 -15 457 l-1 460 25 24 c14 12 56 51 94 85 38 33 85 76 105
94 20 18 62 57 95 85 32 29 81 73 109 100 28 26 55 47 60 47 4 0 5 5 2 10 -3
6 2 10 12 10 14 0 10 8 -17 33 -60 54 -193 172 -235 208 -22 19 -49 43 -60 54
-12 11 -50 45 -85 75 -117 102 -105 57 -104 397 1 164 2 307 3 318 1 15 8 20
29 21 80 2 199 34 299 80 107 48 227 145 310 251 40 49 102 185 124 268 21 84
31 236 18 295 -4 19 -10 49 -13 65 -19 112 -93 244 -188 337 -27 26 -52 48
-55 48 -3 0 -19 12 -36 26 -31 26 -135 81 -197 103 -19 7 -44 17 -55 21 -62
25 -162 38 -291 38 -78 1 -144 -1 -146 -3z"/>
</g>
</svg>
